<svg id="Layer_1" data-name="Layer 1" xmlns="http://www.w3.org/2000/svg" viewBox="0 0 309.68 275.78"><defs><style>.cls-1{fill:#333;}</style></defs><path class="cls-1" d="M246.87,4.91c19.49,0,39,0,58.45-.2,4.08,0,3.54,1.5,2,4.09Q245.08,116.46,182.85,224.14c-8.23,14.24-16.4,28.51-24.64,42.74-.89,1.53-1.18,4.07-3.16,4.19s-2.52-2.43-3.39-3.93q-26-44.89-51.82-89.85Q51.36,93.35,2.77,9.46C.78,6,.36,4.66,5.18,4.71c19.31.2,38.63.15,57.94.19a14.26,14.26,0,0,0,1,3.33Q74.43,26.34,84.9,44.38,108.12,84.7,131.35,125c7,12,14,24,21,36.07,1.67,2.85,3,4.25,5.28.12,8.06-14.51,16.37-28.87,24.68-43.23C199,89.23,215.77,60.6,232.23,31.76,237.28,22.91,243,14.41,246.87,4.91Z"/><path class="cls-1" d="M181.07,4.71c-7.7,13.44-15.49,26.83-23.25,40.24-.81,1.4-1.14,3.73-2.84,3.82s-2.15-2.24-2.95-3.62q-11.7-20.2-23.33-40.44H71.53Q78.21,16.31,84.9,27.9q23.22,40.31,46.45,80.62c7,12.06,14,24.06,21,36.07,1.67,2.86,3,4.26,5.28.12,8.06-14.5,16.37-28.86,24.68-43.22,16.63-28.74,33.44-57.38,49.9-86.21,2-3.55,4.15-7,6.23-10.57Z"/></svg>